<?xml version="1.0" standalone="no"?>
<!DOCTYPE svg PUBLIC "-//W3C//DTD SVG 20010904//EN"
 "http://www.w3.org/TR/2001/REC-SVG-20010904/DTD/svg10.dtd">
<svg version="1.0" xmlns="http://www.w3.org/2000/svg"
 width="1018.000000pt" height="330.000000pt" viewBox="0 0 1018.000000 330.000000"
 preserveAspectRatio="xMidYMid meet">
<metadata>
Created by potrace 1.15, written by Peter Selinger 2001-2017
</metadata>
<g transform="translate(0.000000,330.000000) scale(0.100000,-0.100000)"
fill="#000000" stroke="none">
<path d="M1036 3285 c-83 -29 -137 -114 -180 -283 -47 -188 -61 -309 -60 -532
0 -235 15 -329 84 -521 33 -94 144 -355 157 -368 2 -3 1 20 -3 50 -5 49 -2 61
33 129 21 41 230 379 465 750 234 371 429 687 433 702 6 22 1 33 -23 58 l-30
30 -419 0 c-329 -1 -426 -4 -457 -15z"/>
<path d="M1743 2218 c-12 -13 -94 -138 -182 -277 -125 -197 -161 -262 -161
-288 0 -26 37 -93 166 -296 91 -144 173 -268 181 -274 28 -21 87 -16 110 10
46 49 343 535 343 559 0 23 -66 133 -299 501 -24 37 -51 72 -61 77 -32 17 -75
11 -97 -12z"/>
<path d="M2890 1470 l0 -280 130 0 130 0 0 280 0 280 -130 0 -130 0 0 -280z"/>
<path d="M3610 1470 l0 -280 130 0 130 0 0 280 0 280 -130 0 -130 0 0 -280z"/>
<path d="M4440 1691 c0 -218 101 -403 262 -479 89 -42 159 -55 274 -50 86 3
108 8 168 36 39 18 86 50 107 72 l37 38 6 -59 7 -59 119 0 120 0 0 280 0 280
-130 0 -130 0 0 -60 c0 -118 -68 -228 -168 -273 -66 -29 -170 -28 -237 2 -103
45 -164 138 -173 264 l-5 67 -128 0 -129 0 0 -59z"/>
<path d="M5740 1470 l0 -280 130 0 130 0 0 280 0 280 -130 0 -130 0 0 -280z"/>
<path d="M6488 1470 l3 -280 129 0 130 0 0 280 0 280 -132 0 -133 0 3 -280z"/>
<path d="M6940 1470 l0 -280 130 0 130 0 0 280 0 280 -130 0 -130 0 0 -280z"/>
<path d="M7690 1470 l0 -280 130 0 130 0 0 280 0 280 -130 0 -130 0 0 -280z"/>
<path d="M8100 1667 c0 -246 140 -431 373 -493 61 -16 242 -18 307 -3 65 15
159 63 210 109 l45 40 -88 85 -88 85 -33 -25 c-47 -36 -112 -57 -181 -58 -173
-2 -285 109 -286 282 l-1 61 -129 0 -129 0 0 -83z"/>
<path d="M9075 1739 c-10 -14 5 -163 21 -227 57 -218 238 -352 478 -352 140 0
248 40 315 115 l29 33 6 -30 c3 -17 6 -43 6 -59 l0 -29 125 0 125 0 0 280 0
280 -133 0 -134 0 -1 -64 c-1 -105 -54 -203 -136 -251 -128 -75 -306 -39 -388
80 -33 48 -62 155 -55 202 l6 33 -129 0 c-80 0 -131 -4 -135 -11z"/>
<path d="M532 725 c393 -623 423 -667 466 -693 l47 -27 443 0 444 0 20 25 c13
17 19 35 16 60 -2 26 -110 203 -403 668 l-400 632 -527 0 -527 0 421 -665z"/>
<path d="M2928 914 c-29 -15 -42 -46 -36 -85 2 -18 19 -32 62 -54 33 -16 61
-35 64 -42 5 -18 -47 -27 -83 -14 -43 15 -45 15 -45 -14 0 -32 26 -45 88 -45
67 0 96 24 95 75 -1 45 -18 64 -75 85 -24 9 -43 22 -43 30 0 19 56 25 85 10
18 -10 20 -8 20 20 0 24 -6 33 -26 40 -36 14 -74 12 -106 -6z"/>
<path d="M3233 923 c-12 -2 -34 -18 -49 -36 -24 -28 -26 -37 -22 -105 3 -66 6
-77 31 -98 40 -34 134 -34 172 -1 50 43 51 165 2 214 -25 25 -85 37 -134 26z
m94 -69 c22 -22 25 -32 20 -70 -6 -56 -21 -74 -61 -74 -53 0 -71 21 -71 80 0
42 4 55 24 71 32 26 57 24 88 -7z"/>
<path d="M4593 916 c-52 -24 -66 -55 -61 -137 3 -63 7 -74 31 -95 40 -34 134
-34 172 -1 50 43 51 165 2 214 -30 31 -98 40 -144 19z m104 -62 c22 -22 25
-32 20 -70 -6 -56 -21 -74 -61 -74 -53 0 -71 21 -71 80 0 42 4 55 24 71 32 26
57 24 88 -7z"/>
<path d="M5260 923 c-34 -13 -50 -37 -50 -73 0 -42 18 -62 72 -79 48 -16 63
-34 43 -51 -15 -12 -59 -10 -97 5 -14 6 -18 2 -18 -19 0 -32 25 -46 87 -46 68
0 93 20 93 74 0 49 -12 63 -74 86 -23 9 -41 22 -41 30 0 19 56 25 85 10 18
-10 20 -8 20 19 0 16 -4 32 -9 35 -15 10 -95 16 -111 9z"/>
<path d="M5934 914 c-72 -35 -83 -182 -17 -233 29 -23 119 -29 154 -11 30 16
49 64 49 122 0 67 -16 98 -60 120 -43 22 -85 22 -126 2z m103 -49 c37 -26 38
-123 0 -147 -22 -14 -67 -8 -87 12 -29 29 -27 94 5 125 28 29 51 31 82 10z"/>
<path d="M7000 913 c-19 -10 -40 -29 -47 -43 -17 -34 -16 -125 2 -160 20 -39
43 -50 109 -50 43 0 61 5 81 23 52 45 53 163 2 215 -33 33 -100 40 -147 15z
m107 -59 c22 -22 25 -32 20 -70 -6 -56 -21 -74 -61 -74 -52 0 -69 20 -70 80
-1 43 3 55 23 71 32 26 57 24 88 -7z"/>
<path d="M8703 915 c-35 -15 -49 -48 -39 -91 5 -19 21 -32 60 -49 30 -13 57
-29 61 -36 17 -27 -39 -34 -102 -14 -20 6 -23 4 -23 -18 0 -34 25 -47 90 -47
41 0 56 5 77 26 20 20 24 31 19 57 -8 40 -25 57 -78 77 -24 9 -43 22 -43 30 0
19 56 25 85 10 18 -10 20 -8 20 20 0 24 -6 33 -26 40 -34 13 -63 12 -101 -5z"/>
<path d="M9763 915 c-35 -15 -49 -48 -39 -91 5 -19 21 -32 60 -49 30 -13 57
-29 61 -36 17 -27 -39 -34 -102 -14 -20 6 -23 4 -23 -18 0 -34 25 -47 90 -47
41 0 56 5 75 25 48 47 23 105 -56 134 -25 9 -44 23 -44 31 0 19 56 25 85 10
18 -10 20 -8 20 20 0 24 -6 33 -26 40 -34 13 -63 12 -101 -5z"/>
<path d="M10033 915 c-35 -15 -49 -48 -39 -91 5 -19 21 -32 60 -49 30 -13 57
-29 61 -36 17 -27 -39 -34 -102 -14 -20 6 -23 4 -23 -18 0 -34 25 -47 90 -47
123 0 135 124 15 162 -49 16 -54 42 -8 46 18 2 41 -2 53 -8 18 -10 20 -8 20
20 0 24 -6 33 -26 40 -34 13 -63 12 -101 -5z"/>
<path d="M3500 790 l0 -130 90 0 c89 0 90 0 90 25 0 24 -3 25 -60 25 l-60 0 0
105 0 105 -30 0 -30 0 0 -130z"/>
<path d="M3760 835 c0 -137 25 -175 115 -175 90 0 115 38 115 175 l0 85 -30 0
-30 0 0 -89 c0 -98 -11 -121 -55 -121 -44 0 -55 23 -55 121 l0 89 -30 0 -30 0
0 -85z"/>
<path d="M4070 895 c0 -22 4 -25 40 -25 l40 0 0 -105 0 -105 30 0 30 0 0 105
0 105 40 0 c36 0 40 3 40 25 l0 25 -110 0 -110 0 0 -25z"/>
<path d="M4370 790 l0 -130 30 0 30 0 0 130 0 130 -30 0 -30 0 0 -130z"/>
<path d="M4870 790 l0 -130 30 0 29 0 3 82 3 83 55 -82 c50 -75 58 -82 88 -83
l32 0 0 130 0 130 -30 0 -30 0 0 -82 0 -82 -57 82 c-51 75 -59 82 -90 82 l-33
0 0 -130z"/>
<path d="M5620 790 l0 -130 30 0 c29 0 30 1 30 50 l0 50 50 0 c49 0 50 1 50
30 0 29 -1 30 -50 30 -47 0 -50 2 -50 25 0 24 3 25 60 25 57 0 60 1 60 25 0
25 -1 25 -90 25 l-90 0 0 -130z"/>
<path d="M6220 790 l0 -130 30 0 c29 0 30 2 30 45 0 59 19 59 57 0 24 -38 33
-45 61 -45 39 0 40 6 4 56 l-29 40 24 17 c18 14 23 27 23 62 0 70 -22 85 -120
85 l-80 0 0 -130z"/>
<path d="M6670 845 c45 -67 50 -80 50 -130 0 -54 0 -55 30 -55 30 0 30 0 30
56 0 50 5 63 43 118 64 91 63 86 22 86 -31 0 -39 -5 -64 -46 l-29 -45 -32 45
c-27 40 -36 46 -66 46 l-35 0 51 -75z"/>
<path d="M7280 830 c0 -136 24 -170 117 -170 88 0 113 40 113 183 l0 77 -30 0
-30 0 0 -89 c0 -99 -11 -121 -59 -121 -44 0 -51 16 -51 117 l0 93 -30 0 -30 0
0 -90z"/>
<path d="M7610 790 l0 -130 30 0 c29 0 30 2 30 45 0 33 4 45 15 45 8 0 28 -20
45 -45 27 -39 36 -45 66 -45 l35 0 -32 46 -31 46 21 22 c28 30 29 98 1 126
-17 17 -33 20 -100 20 l-80 0 0 -130z"/>
<path d="M8040 790 l0 -130 80 0 c73 0 83 3 105 25 28 27 32 62 12 89 -9 12
-12 36 -9 66 6 65 -16 80 -115 80 l-73 0 0 -130z"/>
<path d="M8340 819 c0 -98 1 -101 29 -130 25 -25 37 -29 83 -29 89 1 108 29
108 164 0 96 0 96 -25 96 -25 0 -25 -1 -25 -83 0 -95 -15 -127 -59 -127 -44 0
-51 16 -51 117 l0 93 -30 0 -30 0 0 -101z"/>
<path d="M8940 790 l0 -130 30 0 30 0 0 130 0 130 -30 0 -30 0 0 -130z"/>
<path d="M9110 790 l0 -130 25 0 c24 0 24 2 27 87 l3 88 59 -88 c55 -80 62
-87 93 -87 l33 0 0 130 0 130 -30 0 -29 0 -3 -81 -3 -82 -55 81 c-50 73 -58
81 -87 82 l-33 0 0 -130z"/>
<path d="M9450 790 l0 -130 90 0 c89 0 90 0 90 25 0 24 -3 25 -60 25 -57 0
-60 1 -60 25 0 24 3 25 55 25 54 0 55 0 55 30 0 30 -1 30 -55 30 -52 0 -55 1
-55 25 0 24 3 25 60 25 57 0 60 1 60 25 0 25 -1 25 -90 25 l-90 0 0 -130z"/>
</g>
</svg>
