<?xml version="1.0" encoding="UTF-8"?>
<svg width="64" height="64" version="1.1" viewBox="0 0 58 53" xmlns="http://www.w3.org/2000/svg" xmlns:xlink="http://www.w3.org/1999/xlink">
    <!--Generated by IJSVG (https://github.com/curthard89/IJSVG)-->
    <g transform="translate(-241, -1322)">
        <g transform="translate(241, 1322)">
            <g fill-rule="evenodd" stroke="none" stroke-width="1">
                <path fill="#3083C9" d="M39.566,42.783l-9.552,-4.776c-1.234,-0.617 -2.014,-1.879 -2.014,-3.258v-3.749c0.268,-0.305 0.576,-0.698 0.904,-1.162c1.301,-1.838 2.286,-3.861 2.969,-5.983c1.224,-0.378 2.127,-1.51 2.127,-2.855v-4c0,-0.88 -0.391,-1.667 -1,-2.217v-5.783c0,0 1.187,-9 -11,-9c-12.188,0 -11,9 -11,9v5.783c-0.609,0.55 -1,1.337 -1,2.217v4c0,1.054 0.554,1.982 1.383,2.517c0.999,4.352 3.617,7.483 3.617,7.483v3.655c0,1.334 -0.728,2.56 -1.899,3.199l-8.921,4.866c-2.577,1.405 -4.18,4.106 -4.18,7.042v3.238h44v-3.042c0,-3.039 -1.717,-5.816 -4.434,-7.175"></path>
                <path fill="#CB465F" d="M26.07,38.808l-9.774,-4.233c-0.534,-0.267 -0.97,-0.836 -1.277,-1.453c-0.276,-0.558 0.137,-1.213 0.759,-1.213h6.883c0,0 2.524,0.242 4.471,-0.594c1.14,-0.49 1.533,-1.92 0.819,-2.936c-2.085,-2.969 -6.395,-9.958 -6.535,-17.177c0,0 -0.239,-11.111 -11.202,-11.202c-2.186,0.019 -3.97,0.477 -5.438,1.189c0.376,1.5 0.224,2.675 0.224,2.675v5.783c0.609,0.55 1,1.337 1,2.217v4c0,1.345 -0.903,2.477 -2.127,2.855c-0.683,2.122 -1.668,4.145 -2.969,5.983c-0.328,0.464 -0.636,0.857 -0.904,1.162v3.749c0,0.852 0.299,1.658 0.818,2.296h2.751c0.686,0 0.989,0.869 0.45,1.294c-0.185,0.146 -0.364,0.283 -0.53,0.406l8.077,4.038c2.717,1.359 4.434,4.136 4.434,7.175v3.042h14v-2.697c0,-2.693 -1.522,-5.155 -3.93,-6.359" transform="translate(28, 5.136)"></path>
            </g>
        </g>
    </g>
</svg>