<?xml version="1.0" encoding="UTF-8"?>
<svg width="64" height="64" version="1.1" viewBox="0 0 60 60" xmlns="http://www.w3.org/2000/svg" xmlns:xlink="http://www.w3.org/1999/xlink">
    <!--Generated by IJSVG (https://github.com/curthard89/IJSVG)-->
    <defs>
        <path id="path-1" d="M2,1c0,0.552 -0.448,1 -1,1c-0.552,0 -1,-0.448 -1,-1c0,-0.552 0.448,-1 1,-1c0.552,0 1,0.448 1,1"></path>
        <path id="path-3" d="M3,2h-2c-0.553,0 -1,-0.447 -1,-1c0,-0.553 0.447,-1 1,-1h2c0.553,0 1,0.447 1,1c0,0.553 -0.447,1 -1,1"></path>
        <path id="path-2" d="M1,4c-0.553,0 -1,-0.447 -1,-1v-2c0,-0.553 0.447,-1 1,-1c0.553,0 1,0.447 1,1v2c0,0.553 -0.447,1 -1,1"></path>
    </defs>
    <g transform="translate(-626, -862)">
        <g transform="translate(626, 862)">
            <g fill-rule="evenodd" stroke="none" stroke-width="1">
                <use fill="#F3D55B" transform="translate(51, 33)" xlink:href="#path-1"></use>
                <use fill="#F3D55B" transform="translate(56, 9)" xlink:href="#path-1"></use>
                <use fill="#F3D55B" transform="translate(2, 48)" xlink:href="#path-1"></use>
                <use fill="#F3D55B" transform="translate(8, 23)" xlink:href="#path-1"></use>
                <path fill="#F3D55B" d="M3.997,5c0.379,0.285 0.718,0.623 1.003,1.003c0.285,-0.38 0.623,-0.718 1.003,-1.003c-0.38,-0.285 -0.718,-0.623 -1.003,-1.003c-0.285,0.38 -0.624,0.718 -1.003,1.003m1.003,5c-0.552,0 -1,-0.447 -1,-1c0,-1.654 -1.346,-3 -3,-3c-0.552,0 -1,-0.447 -1,-1c0,-0.553 0.448,-1 1,-1c1.654,0 3,-1.346 3,-3c0,-0.553 0.448,-1 1,-1c0.552,0 1,0.447 1,1c0,1.654 1.346,3 3,3c0.552,0 1,0.447 1,1c0,0.553 -0.448,1 -1,1c-1.654,0 -3,1.346 -3,3c0,0.553 -0.448,1 -1,1" transform="translate(0.0001, 0)"></path>
                <path fill="#F3D55B" d="M2.828,4.414l1.586,1.586l1.586,-1.586l-1.586,-1.586l-1.586,1.586Zm1.586,4.414l-4.414,-4.414l4.414,-4.414l4.414,4.414l-4.414,4.414Z" transform="translate(49.5861, 49.586)"></path>
                <use fill="#F3D55B" transform="translate(53, 48)" xlink:href="#path-2"></use>
                <use fill="#F3D55B" transform="translate(56, 53)" xlink:href="#path-3"></use>
                <use fill="#F3D55B" transform="translate(53, 56)" xlink:href="#path-2"></use>
                <use fill="#F3D55B" transform="translate(48, 53)" xlink:href="#path-3"></use>
                <path fill="#B0B6BB" d="M6,9c0,4.971 -1.343,9 -3,9c-1.657,0 -3,-4.029 -3,-9c0,-4.971 1.343,-9 3,-9c1.657,0 3,4.029 3,9" transform="translate(27, 32)"></path>
                <path fill="#E8EDEE" d="M22.125,27c0,-2.729 -0.144,-5.115 -0.323,-7.026c-0.361,-3.86 -1.289,-7.657 -2.946,-11.162c-3.523,-7.45 -7.731,-8.812 -7.731,-8.812c0,0 -4.208,1.362 -7.731,8.812c-1.657,3.505 -2.585,7.302 -2.946,11.162c-0.179,1.911 -0.323,4.297 -0.323,7.026c0,0 -0.125,11.875 3,15c0,0 1.507,2.108 5.463,2.787c-0.292,-1.388 -0.463,-3.026 -0.463,-4.787c0,-4.971 1.343,-9 3,-9c1.657,0 3,4.029 3,9c0,1.761 -0.171,3.399 -0.463,4.787c3.956,-0.679 5.463,-2.787 5.463,-2.787c3.125,-3.125 3,-15 3,-15" transform="translate(18.875, 1)"></path>
                <path fill="#B0B6BB" d="M3.212,0l-0.151,0.302c-0.26,3.728 -0.961,8.81 -2.849,10.698c0,0 -0.017,0.023 -0.043,0.055c-0.006,0.008 -0.006,0.008 -0.014,0.017c-0.03,0.037 -0.071,0.086 -0.128,0.148c-0.011,0.012 -0.015,0.018 -0.027,0.031l6.593,4.616c0.682,0.477 1.619,-0.011 1.619,-0.843v-4.024c0,-7.875 -5,-11 -5,-11" transform="translate(37.788, 32)"></path>
                <path fill="#B0B6BB" d="M8.057,11.072c-0.008,-0.009 -0.008,-0.009 -0.014,-0.017c-0.026,-0.032 -0.043,-0.055 -0.043,-0.055c-1.888,-1.889 -2.589,-6.97 -2.849,-10.698l-0.151,-0.302c0,0 -5,3.125 -5,11v4.024c0,0.832 0.937,1.32 1.619,0.843l6.593,-4.616c-0.011,-0.013 -0.015,-0.019 -0.026,-0.031c-0.057,-0.062 -0.099,-0.111 -0.129,-0.148" transform="translate(13.9998, 32.0003)"></path>
                <path fill="#F3D55B" d="M9.016,0.76c0,0 -0.338,-0.389 -0.989,-0.76c-0.527,2.598 -1.476,4.339 -2.563,4.339c-1.087,0 -2.036,-1.74 -2.563,-4.337c-0.329,0.196 -0.664,0.432 -0.99,0.758c-1.712,1.712 -1.911,4.38 -0.567,6.394l4.12,6.185l4.12,-6.169c1.343,-2.015 1.144,-4.698 -0.568,-6.41" transform="translate(24.5364, 45.661)"></path>
                <path fill="#B0B6BB" d="M14,7c0,3.866 -3.134,7 -7,7c-3.866,0 -7,-3.134 -7,-7c0,-3.866 3.134,-7 7,-7c3.866,0 7,3.134 7,7" transform="translate(23, 14)"></path>
                <path fill="#E8EDEE" d="M6,3c0,1.657 -1.343,3 -3,3c-1.657,0 -3,-1.343 -3,-3c0,-1.657 1.343,-3 3,-3c1.657,0 3,1.343 3,3" transform="translate(27, 18)"></path>
                <path fill="#D75A4A" d="M6.733,9c2.597,0 4.957,-0.797 6.733,-2.097c-3.272,-5.767 -6.733,-6.903 -6.733,-6.903c0,0 -3.461,1.136 -6.733,6.903c1.776,1.3 4.136,2.097 6.733,2.097" transform="translate(23.267, 1)"></path>
            </g>
        </g>
    </g>
</svg>