<?xml version="1.0" encoding="UTF-8"?>
<svg width="64" height="64" version="1.1" viewBox="0 0 58 42" xmlns="http://www.w3.org/2000/svg" xmlns:xlink="http://www.w3.org/1999/xlink">
    <!--Generated by IJSVG (https://github.com/curthard89/IJSVG)-->
    <defs>
        <path id="path-1" d="M3,2h-2c-0.552,0 -1,-0.447 -1,-1c0,-0.553 0.448,-1 1,-1h2c0.552,0 1,0.447 1,1c0,0.553 -0.448,1 -1,1"></path>
    </defs>
    <g transform="translate(-481, -947)">
        <g transform="translate(481, 947)">
            <g fill-rule="evenodd" stroke="none" stroke-width="1">
                <path fill="#BDC3C7" d="M34.907,0c-0.208,0.58 -0.758,1 -1.407,1h-8c-0.649,0 -1.2,-0.42 -1.407,-1h-23.515c-0.319,0 -0.578,0.259 -0.578,0.578v2.844c0,0.319 0.259,0.578 0.578,0.578h56.844c0.319,0 0.578,-0.259 0.578,-0.578v-2.844c0,-0.319 -0.259,-0.578 -0.578,-0.578h-22.515Z" transform="translate(0.0002, 38)"></path>
                <path fill="#ECF0F1" d="M22.093,38c0.208,0.58 0.758,1 1.407,1h8c0.649,0 1.2,-0.42 1.407,-1h21.093v-35c0,-1.657 -1.343,-3 -3,-3h-48c-1.657,0 -3,1.343 -3,3v35h22.093Z" transform="translate(1.9998, 0)"></path>
                <path fill="#35495E" d="M0,30h46v-30h-46Z" transform="translate(6, 4)"></path>
                <path fill="#F0C419" d="M2,1c0,0.553 -0.448,1 -1,1c-0.552,0 -1,-0.447 -1,-1c0,-0.553 0.448,-1 1,-1c0.552,0 1,0.447 1,1" transform="translate(22, 23)"></path>
                <path fill="#8697CB" d="M5.074,12.127c-0.293,0 -0.583,-0.128 -0.781,-0.375l-4,-4.993c-0.292,-0.365 -0.293,-0.884 -0.001,-1.249l4,-5.007c0.345,-0.433 0.974,-0.503 1.406,-0.157c0.431,0.344 0.501,0.973 0.157,1.405l-3.501,4.382l3.5,4.369c0.345,0.431 0.276,1.061 -0.155,1.405c-0.185,0.149 -0.406,0.22 -0.625,0.22" transform="translate(13.9265, 12.873)"></path>
                <path fill="#8697CB" d="M1.125,12.125c-0.219,0 -0.44,-0.071 -0.625,-0.22c-0.431,-0.344 -0.5,-0.974 -0.155,-1.405l3.5,-4.369l-3.501,-4.382c-0.344,-0.432 -0.274,-1.061 0.157,-1.405c0.432,-0.344 1.061,-0.275 1.406,0.157l4,5.007c0.292,0.365 0.291,0.884 -0.001,1.249l-4,4.993c-0.198,0.247 -0.488,0.375 -0.781,0.375" transform="translate(37.8745, 12.875)"></path>
                <path fill="#F0C419" d="M1,8c-0.552,0 -1,-0.447 -1,-1v-6c0,-0.553 0.448,-1 1,-1c0.552,0 1,0.447 1,1v6c0,0.553 -0.448,1 -1,1" transform="translate(22, 13)"></path>
                <use fill="#FFFFFF" transform="translate(26, 23)" xlink:href="#path-1"></use>
                <use fill="#FFFFFF" transform="translate(32, 23)" xlink:href="#path-1"></use>
            </g>
        </g>
    </g>
</svg>