<?xml version="1.0" encoding="UTF-8"?>
<svg width="512" height="512" version="1.1" viewBox="0 0 58 51" xmlns="http://www.w3.org/2000/svg" xmlns:xlink="http://www.w3.org/1999/xlink">
    <!--Generated by IJSVG (https://github.com/curthard89/IJSVG)-->
    <defs>
        <path id="path-2" d="M9,2h-8c-0.553,0 -1,-0.447 -1,-1c0,-0.553 0.447,-1 1,-1h8c0.553,0 1,0.447 1,1c0,0.553 -0.447,1 -1,1"></path>
        <path id="path-1" d="M33,2h-32c-0.553,0 -1,-0.447 -1,-1c0,-0.553 0.447,-1 1,-1h32c0.553,0 1,0.447 1,1c0,0.553 -0.447,1 -1,1"></path>
    </defs>
    <g transform="translate(-843, -1031)">
        <g transform="translate(843, 1031)">
            <g fill-rule="evenodd" stroke="none" stroke-width="1">
                <path fill="#724530" d="M0,0v44h42v-3.947c1.206,0.601 2.561,0.947 4,0.947c1.439,0 2.794,-0.346 4,-0.947v3.947h8v-44h-58Z"></path>
                <path fill="#D3B434" d="M18,9c0,-4.971 -4.029,-9 -9,-9c-4.971,0 -9,4.029 -9,9c0,4.971 4.029,9 9,9c4.971,0 9,-4.029 9,-9" transform="translate(37, 23)"></path>
                <path fill="#F8E7A1" d="M1,7c-0.553,0 -1,-0.447 -1,-1c0,-0.553 0.447,-1 1,-1c2.206,0 4,-1.794 4,-4c0,-0.553 0.447,-1 1,-1c0.553,0 1,0.447 1,1c0,3.309 -2.691,6 -6,6" transform="translate(45, 31)"></path>
                <path fill="#F8E7A1" d="M1,7c-0.553,0 -1,-0.447 -1,-1c0,-3.309 2.691,-6 6,-6c0.553,0 1,0.447 1,1c0,0.553 -0.447,1 -1,1c-2.206,0 -4,1.794 -4,4c0,0.553 -0.447,1 -1,1" transform="translate(40, 26)"></path>
                <path fill="#ECE8D8" d="M33,28c0,-4.971 4.029,-9 9,-9c3.488,0 6.506,1.988 8,4.889v-19.889c-2.209,0 -4,-1.791 -4,-4h-42c0,2.209 -1.791,4 -4,4v28c2.209,0 4,1.791 4,4h33.889c-2.901,-1.494 -4.889,-4.512 -4.889,-8" transform="translate(4, 4)"></path>
                <path fill="#F0CE49" d="M4,0.947c-1.439,0 -2.794,-0.346 -4,-0.947v10.947l4,-4l4,4v-10.947c-1.206,0.601 -2.561,0.947 -4,0.947" transform="translate(42, 40.053)"></path>
                <path fill="#C9B693" d="M13,2h-12c-0.553,0 -1,-0.447 -1,-1c0,-0.553 0.447,-1 1,-1h12c0.553,0 1,0.447 1,1c0,0.553 -0.447,1 -1,1" transform="translate(22, 9)"></path>
                <use fill="#C9B693" transform="translate(12, 14)" xlink:href="#path-1"></use>
                <use fill="#C9B693" transform="translate(12, 19)" xlink:href="#path-1"></use>
                <path fill="#C9B693" d="M15,2h-14c-0.553,0 -1,-0.447 -1,-1c0,-0.553 0.447,-1 1,-1h14c0.553,0 1,0.447 1,1c0,0.553 -0.447,1 -1,1" transform="translate(18, 24)"></path>
                <path fill="#C9B693" d="M3,2h-2c-0.553,0 -1,-0.447 -1,-1c0,-0.553 0.447,-1 1,-1h2c0.553,0 1,0.447 1,1c0,0.553 -0.447,1 -1,1" transform="translate(12, 24)"></path>
                <use fill="#C9B693" transform="translate(12, 29)" xlink:href="#path-2"></use>
                <use fill="#C9B693" transform="translate(24, 29)" xlink:href="#path-2"></use>
            </g>
        </g>
    </g>
</svg>